<svg width="100" height="100" viewBox="0 0 100 100" fill="none" xmlns="http://www.w3.org/2000/svg">
<path opacity="0.5" fill-rule="evenodd" clip-rule="evenodd" d="M10.971 66.6666H89.0292C89.3629 63.6721 89.68 60.305 90.0375 56.5066L90.9925 46.3596C91.7425 38.3904 92.1175 34.4058 90.7542 32.7586C90.0167 31.8676 89.0138 31.3216 87.9417 31.2275C85.9596 31.0534 83.4704 33.8871 78.4921 39.5544C75.9175 42.4854 74.6305 43.9508 73.1942 44.1779C72.3988 44.3033 71.5879 44.1741 70.8529 43.8046C69.5271 43.1371 68.6429 41.3255 66.8746 37.7021L57.5546 18.6035C54.2134 11.7567 52.5425 8.33331 50 8.33331C47.4575 8.33331 45.7867 11.7567 42.4454 18.6035L33.1253 37.7021C31.3571 41.3254 30.473 43.1371 29.1469 43.8046C28.4122 44.1741 27.6014 44.3033 26.8057 44.1779C25.3697 43.9508 24.0824 42.4854 21.5078 39.5544C16.5295 33.8871 14.0404 31.0534 12.0583 31.2275C10.9861 31.3216 9.98328 31.8676 9.24582 32.7586C7.88253 34.4058 8.25753 38.3904 9.00757 46.3596L9.96253 56.5066C10.32 60.305 10.6369 63.6721 10.971 66.6666Z" fill="#E7C723"/>
<path d="M55.6654 91.6667C70.4358 91.6667 77.8212 91.6667 82.7487 86.6258C86.5566 82.7304 87.8916 76.8529 89.0279 66.6667H10.97C12.1064 76.8529 13.4414 82.7304 17.2494 86.6258C22.177 91.6667 29.5623 91.6667 44.3329 91.6667H55.6654Z" fill="#E7C723"/>
</svg>
