<svg width="100" height="100" viewBox="0 0 100 100" fill="none" xmlns="http://www.w3.org/2000/svg">
<path opacity="0.5" d="M14.4353 85.5646C20.5372 91.6666 30.3581 91.6666 50 91.6666C69.6416 91.6666 79.4629 91.6666 85.5646 85.5646C91.6666 79.4629 91.6666 69.6416 91.6666 50C91.6666 30.3581 91.6666 20.5372 85.5646 14.4353C79.4629 8.33331 69.6416 8.33331 50 8.33331C30.3581 8.33331 20.5372 8.33331 14.4353 14.4353C8.33331 20.5372 8.33331 30.3581 8.33331 50C8.33331 69.6416 8.33331 79.4629 14.4353 85.5646Z" fill="#4582EC"/>
<path d="M20.8333 35.4159V31.25C20.8333 27.7982 23.6315 25 27.0833 25H72.9166C76.3683 25 79.1666 27.7982 79.1666 31.25V35.4159C77.4258 34.1082 75.2616 33.3333 72.9166 33.3333H27.0833C24.7383 33.3333 22.5743 34.1082 20.8333 35.4159Z" fill="#4582EC"/>
<path d="M20.8333 47.9158V43.75C20.8333 40.2982 23.6315 37.5 27.0833 37.5H72.9166C76.3683 37.5 79.1666 40.2982 79.1666 43.75V47.9158C77.4258 46.6083 75.2616 45.8333 72.9166 45.8333H27.0833C24.7383 45.8333 22.5743 46.6083 20.8333 47.9158Z" fill="#4582EC"/>
<path d="M86.4584 62.5C86.4584 60.7742 85.0592 59.375 83.3334 59.375H79.0804V55.2096C78.585 52.2529 76.0142 50 72.9167 50H27.0834C23.986 50 21.4149 52.2529 20.9195 55.2096V59.375H16.6667C14.9408 59.375 13.5417 60.7742 13.5417 62.5C13.5417 64.2258 14.9408 65.625 16.6667 65.625H26.2561C29.8769 65.625 30.8286 65.6788 31.6411 66.0096C31.7271 66.0446 31.8122 66.0821 31.8962 66.1217C32.6898 66.4954 33.3738 67.1596 35.8252 69.8242L35.973 69.9846L36.2891 70.3288C38.1106 72.3121 39.5496 73.8792 41.436 74.8254C41.7871 75.0017 42.1471 75.1596 42.5146 75.2987C44.4879 76.0462 46.6154 76.0442 49.3084 76.0421L49.7759 76.0417L50.2167 76.0421C52.7642 76.0442 54.7767 76.0458 56.6613 75.3708C57.0125 75.245 57.3575 75.1021 57.6946 74.9429C59.5046 74.0875 60.9263 72.6633 62.7263 70.8604L63.0379 70.5483L63.995 69.5913C66.5838 67.0025 67.3017 66.3625 68.1254 66.0217C68.9488 65.6804 69.9092 65.625 73.5704 65.625H83.3334C85.0592 65.625 86.4584 64.2258 86.4584 62.5Z" fill="#4582EC"/>
</svg>
