<svg width="100" height="100" viewBox="0 0 100 100" fill="none" xmlns="http://www.w3.org/2000/svg">
<path opacity="0.5" d="M45.195 91.3925C24.4464 89.01 8.33337 71.3867 8.33337 50C8.33337 26.9881 26.9882 8.33331 50 8.33331C73.0117 8.33331 91.6667 26.9881 91.6667 50C91.6667 71.4854 77.9888 69.7187 66.3063 68.2096C59.5684 67.3392 53.4942 66.5546 51.0913 70.3667C49.4475 72.9733 51.2242 76.2241 53.4034 78.4033C56.1263 81.1262 56.1263 85.5404 53.4034 88.2633C51.2242 90.4425 48.2567 91.7442 45.195 91.3925Z" fill="#4582EC"/>
<path d="M46.1875 29.1667C46.1875 32.6185 43.3892 35.4167 39.9375 35.4167C36.4857 35.4167 33.6875 32.6185 33.6875 29.1667C33.6875 25.7149 36.4857 22.9167 39.9375 22.9167C43.3892 22.9167 46.1875 25.7149 46.1875 29.1667Z" fill="#4582EC"/>
<path d="M27.0834 54.1675C30.5352 54.1675 33.3334 51.3696 33.3334 47.9175C33.3334 44.4658 30.5352 41.6675 27.0834 41.6675C23.6316 41.6675 20.8334 44.4658 20.8334 47.9175C20.8334 51.3696 23.6316 54.1675 27.0834 54.1675Z" fill="#4582EC"/>
<path d="M72.9166 54.1675C76.3683 54.1675 79.1666 51.3696 79.1666 47.9175C79.1666 44.4658 76.3683 41.6675 72.9166 41.6675C69.465 41.6675 66.6666 44.4658 66.6666 47.9175C66.6666 51.3696 69.465 54.1675 72.9166 54.1675Z" fill="#4582EC"/>
<path d="M60.4166 35.4176C63.8683 35.4176 66.6666 32.6194 66.6666 29.1676C66.6666 25.7158 63.8683 22.9176 60.4166 22.9176C56.965 22.9176 54.1666 25.7158 54.1666 29.1676C54.1666 32.6194 56.965 35.4176 60.4166 35.4176Z" fill="#4582EC"/>
</svg>
