<svg width="100" height="100" viewBox="0 0 100 100" fill="none" xmlns="http://www.w3.org/2000/svg">
<path opacity="0.5" d="M12.5 41.6666C12.5 25.9531 12.5 18.0964 17.3815 13.2149C22.2631 8.33331 30.1198 8.33331 45.8333 8.33331H54.1667C69.88 8.33331 77.7371 8.33331 82.6183 13.2149C87.5 18.0964 87.5 25.9531 87.5 41.6666V58.3333C87.5 74.0466 87.5 81.9037 82.6183 86.785C77.7371 91.6666 69.88 91.6666 54.1667 91.6666H45.8333C30.1198 91.6666 22.2631 91.6666 17.3815 86.785C12.5 81.9037 12.5 74.0466 12.5 58.3333V41.6666Z" fill="#4582EC"/>
<path d="M68.8288 68.7554C69.5579 68.1867 70.2192 67.5254 71.5421 66.2025L88.0313 49.7134C88.4296 49.315 88.2471 48.6284 87.7146 48.4434C85.7683 47.7684 83.2363 46.5004 80.8679 44.1321C78.4996 41.7638 77.2317 39.2317 76.5567 37.2854C76.3717 36.7528 75.685 36.5703 75.2867 36.9689L58.7975 53.4579C57.4746 54.7809 56.8133 55.4421 56.2446 56.1713C55.5738 57.0317 54.9983 57.9621 54.5292 58.9471C54.1313 59.7817 53.8354 60.6692 53.2442 62.4438L52.4796 64.7367L51.2642 68.3825L50.1246 71.8013C49.8338 72.6746 50.0608 73.6371 50.7117 74.2884C51.3629 74.9392 52.3254 75.1663 53.1988 74.8754L56.6175 73.7358L60.2633 72.5204L62.5563 71.7558C64.3304 71.1646 65.2183 70.8688 66.0529 70.4709C67.0379 70.0017 67.9683 69.4263 68.8288 68.7554Z" fill="#4582EC"/>
<path d="M93.1938 44.5509C96.7133 41.0314 96.7133 35.3255 93.1938 31.8062C89.6746 28.2869 83.9688 28.2869 80.4492 31.8062L79.9192 32.3363C79.4075 32.8479 79.1758 33.5624 79.3038 34.2744C79.3842 34.7224 79.5329 35.3772 79.8042 36.1586C80.3463 37.7214 81.37 39.7729 83.2988 41.7013C85.2271 43.63 87.2788 44.6538 88.8413 45.1959C89.6229 45.4671 90.2775 45.6159 90.7254 45.6963C91.4375 45.8242 92.1521 45.5925 92.6638 45.0809L93.1938 44.5509Z" fill="#4582EC"/>
<path fill-rule="evenodd" clip-rule="evenodd" d="M30.2083 37.5C30.2083 35.7741 31.6074 34.375 33.3333 34.375H60.4166C62.1425 34.375 63.5416 35.7741 63.5416 37.5C63.5416 39.2259 62.1425 40.625 60.4166 40.625H33.3333C31.6074 40.625 30.2083 39.2259 30.2083 37.5ZM30.2083 54.1667C30.2083 52.4408 31.6074 51.0417 33.3333 51.0417H45.8333C47.5591 51.0417 48.9583 52.4408 48.9583 54.1667C48.9583 55.8925 47.5591 57.2917 45.8333 57.2917H33.3333C31.6074 57.2917 30.2083 55.8925 30.2083 54.1667ZM30.2083 70.8333C30.2083 69.1075 31.6074 67.7083 33.3333 67.7083H39.5833C41.3092 67.7083 42.7083 69.1075 42.7083 70.8333C42.7083 72.5592 41.3092 73.9583 39.5833 73.9583H33.3333C31.6074 73.9583 30.2083 72.5592 30.2083 70.8333Z" fill="#4582EC"/>
</svg>
