<svg width="100" height="100" viewBox="0 0 100 100" fill="none" xmlns="http://www.w3.org/2000/svg">
<path opacity="0.5" d="M83.3333 50C83.3333 68.4096 68.4095 83.3333 50 83.3333C31.5905 83.3333 16.6666 68.4096 16.6666 50C16.6666 31.5905 31.5905 16.6667 50 16.6667C68.4095 16.6667 83.3333 31.5905 83.3333 50Z" fill="#4582EC"/>
<path d="M79.2029 28.2667C80.9217 28.1085 82.1863 26.587 82.0283 24.8684C81.87 23.1498 80.3488 21.8848 78.63 22.043C76.8642 22.2055 74.9883 22.4849 73.0258 22.8717C72.1942 23.0356 71.505 23.5154 71.0583 24.1619L75.7142 28.7316C76.9454 28.522 78.1104 28.3672 79.2029 28.2667Z" fill="#4582EC"/>
<path fill-rule="evenodd" clip-rule="evenodd" d="M87.2359 22.4135C85.5567 22.0158 83.8725 23.0547 83.475 24.7341C83.0771 26.4135 84.1163 28.0975 85.7954 28.4953C87.4375 28.8841 88.07 29.4635 88.305 29.8393C88.5688 30.2612 88.8592 31.3638 87.6513 33.7891C86.8817 35.3339 87.5104 37.2101 89.055 37.9796C90.6 38.7491 92.4763 38.1206 93.2459 36.5758C94.8192 33.4168 95.5925 29.7036 93.6034 26.5243C92.1692 24.2323 89.7567 23.0105 87.2359 22.4135ZM86.2992 45.6713C87.5154 44.4467 87.5084 42.4679 86.2834 41.252C85.0588 40.036 83.08 40.0432 81.8642 41.268C79.0038 44.1488 75.3321 47.2238 70.995 50.3138C69.5892 51.3154 69.2617 53.2667 70.263 54.6721C71.2646 56.0779 73.2159 56.4054 74.6213 55.4042C79.1817 52.155 83.1384 48.855 86.2992 45.6713ZM14.9457 62.2813C15.7854 61.23 16.7679 60.1275 17.8882 58.985L16.897 53.4425C15.8332 53.1288 14.6356 53.3925 13.7974 54.2329C12.4022 55.6321 11.1499 57.0192 10.0625 58.3804C8.98533 59.7288 9.2052 61.6954 10.5537 62.7725C11.9021 63.8496 13.8685 63.6296 14.9457 62.2813ZM65.6267 61.2667C67.1084 60.3813 67.5909 58.4621 66.7055 56.9808C65.8196 55.4996 63.9009 55.0167 62.4196 55.9025C60.4129 57.1021 58.3225 58.2838 56.1588 59.4367C53.9355 60.6213 51.7217 61.7288 49.5346 62.7563C47.9725 63.49 47.3009 65.3513 48.0346 66.9133C48.7684 68.4754 50.6296 69.1471 52.1917 68.4133C54.4746 67.3408 56.7821 66.1863 59.0975 64.9529C61.3509 63.7521 63.5309 62.52 65.6267 61.2667ZM11.7284 67.7087C12.2524 66.0646 11.3442 64.3067 9.69974 63.7825C8.05533 63.2588 6.29745 64.1667 5.77345 65.8113C4.9747 68.3179 4.88979 71.0721 6.39537 73.4787C8.28233 76.4946 11.8397 77.6721 15.3712 78.01C17.0892 78.1746 18.6152 76.915 18.7797 75.1971C18.9441 73.4792 17.6847 71.9529 15.9667 71.7887C13.0735 71.5117 12.0148 70.6767 11.6938 70.1638C11.4867 69.8325 11.27 69.1475 11.7284 67.7087ZM42.0125 72.7204C43.6284 72.1138 44.4463 70.3121 43.84 68.6967C43.2334 67.0808 41.4317 66.2625 39.8159 66.8692C34.713 68.785 29.9621 70.1688 25.8091 70.9904C24.116 71.3254 23.015 72.9696 23.35 74.6625C23.6849 76.3554 25.329 77.4567 27.022 77.1217C31.5742 76.2208 36.6578 74.7308 42.0125 72.7204Z" fill="#4582EC"/>
</svg>
