<svg width="100" height="100" viewBox="0 0 100 100" fill="none" xmlns="http://www.w3.org/2000/svg">
<g opacity="0.5">
<path d="M30.0195 31.5097C31.3135 30.3676 31.4366 28.3928 30.2946 27.0988C29.1525 25.8048 27.1777 25.6817 25.8837 26.8237C18.3199 33.4997 13.5417 43.2771 13.5417 54.1667C13.5417 55.8925 14.9408 57.2917 16.6667 57.2917C18.3926 57.2917 19.7917 55.8925 19.7917 54.1667C19.7917 45.1446 23.7429 37.0495 30.0195 31.5097Z" fill="#4582EC"/>
<path d="M74.1163 26.8237C72.8225 25.6817 70.8475 25.8048 69.7054 27.0988C68.5634 28.3928 68.6867 30.3676 69.9804 31.5097C76.2571 37.0495 80.2084 45.1446 80.2084 54.1667C80.2084 55.8925 81.6075 57.2917 83.3334 57.2917C85.0592 57.2917 86.4584 55.8925 86.4584 54.1667C86.4584 43.2771 81.68 33.4997 74.1163 26.8237Z" fill="#4582EC"/>
<path d="M42.4455 83.4237C40.7742 82.9933 39.0705 83.9996 38.6403 85.6712C38.2102 87.3425 39.2164 89.0462 40.8878 89.4762C43.8038 90.2267 46.8575 90.625 50 90.625C53.1425 90.625 56.1963 90.2267 59.1121 89.4762C60.7838 89.0462 61.79 87.3425 61.3596 85.6712C60.9296 83.9996 59.2259 82.9933 57.5546 83.4237C55.1434 84.0442 52.6125 84.375 50 84.375C47.3875 84.375 44.8567 84.0442 42.4455 83.4237Z" fill="#4582EC"/>
</g>
<path d="M37.5 25C37.5 31.9035 43.0962 37.5 50 37.5C56.9037 37.5 62.5 31.9035 62.5 25C62.5 18.0965 56.9037 12.5 50 12.5C43.0962 12.5 37.5 18.0965 37.5 25Z" fill="#4582EC"/>
<path d="M10.4167 75C10.4167 81.9037 16.0131 87.5 22.9167 87.5C29.8202 87.5 35.4167 81.9037 35.4167 75C35.4167 68.0962 29.8202 62.5 22.9167 62.5C16.0131 62.5 10.4167 68.0962 10.4167 75Z" fill="#4582EC"/>
<path d="M77.0833 87.5C70.1796 87.5 64.5833 81.9037 64.5833 75C64.5833 68.0962 70.1796 62.5 77.0833 62.5C83.9871 62.5 89.5833 68.0962 89.5833 75C89.5833 81.9037 83.9871 87.5 77.0833 87.5Z" fill="#4582EC"/>
</svg>
