<svg width="100" height="100" viewBox="0 0 100 100" fill="none" xmlns="http://www.w3.org/2000/svg">
<path opacity="0.5" d="M14.4353 85.5646C20.5372 91.6667 30.3582 91.6667 50 91.6667C69.6417 91.6667 79.463 91.6667 85.5646 85.5646C91.6667 79.4629 91.6667 69.6417 91.6667 50C91.6667 30.3581 91.6667 20.5372 85.5646 14.4353C79.463 8.33333 69.6417 8.33333 50 8.33333C30.3582 8.33333 20.5372 8.33333 14.4353 14.4353C8.33337 20.5372 8.33337 30.3581 8.33337 50C8.33337 69.6417 8.33337 79.4629 14.4353 85.5646Z" fill="#4582EC"/>
<path fill-rule="evenodd" clip-rule="evenodd" d="M50 30.2083C51.7258 30.2083 53.125 31.6075 53.125 33.3333V48.7054L62.6262 58.2071C63.8467 59.4275 63.8467 61.4058 62.6262 62.6262C61.4058 63.8467 59.4275 63.8467 58.2071 62.6262L47.7904 52.2096C47.2042 51.6237 46.875 50.8287 46.875 50V33.3333C46.875 31.6075 48.2742 30.2083 50 30.2083Z" fill="#4582EC"/>
</svg>
