<svg width="100" height="100" viewBox="0 0 100 100" fill="none" xmlns="http://www.w3.org/2000/svg">
<path d="M29.1666 20.1223C29.1666 26.5714 36.358 33.365 42.2904 37.8722C45.6204 40.4018 47.285 41.6667 50 41.6667C52.715 41.6667 54.38 40.4018 57.7095 37.8722C63.642 33.3651 70.8333 26.5715 70.8333 20.1223C70.8333 8.49659 59.3745 4.1561 50 13.1369C40.6253 4.1561 29.1666 8.49659 29.1666 20.1223Z" fill="#4582EC"/>
<path opacity="0.5" d="M26.083 89.1183H25C21.0716 89.1183 19.1074 89.1183 17.887 87.8979C16.6666 86.6775 16.6666 84.7133 16.6666 80.785V76.1517C16.6666 73.9912 16.6666 72.9112 17.2215 71.9467C17.7765 70.9817 18.6136 70.495 20.2879 69.5212C31.3107 63.11 46.9645 59.5012 57.4129 65.7329C58.1145 66.1517 58.7462 66.6571 59.2854 67.2629C61.6108 69.875 61.4416 73.8171 58.7616 76.1562C58.1954 76.65 57.5925 77.025 56.985 77.155C57.4841 77.0971 57.9625 77.0308 58.4191 76.9579C62.2166 76.3521 65.4041 74.3229 68.3225 72.1183L75.8525 66.4304C78.507 64.425 82.447 64.4246 85.102 66.4292C87.4925 68.2342 88.2233 71.2058 86.712 73.6279C84.95 76.4529 82.467 80.0667 80.0829 82.2746C77.6954 84.4858 74.1412 86.46 71.2395 87.8604C68.025 89.4121 64.4741 90.3058 60.862 90.8908C53.5366 92.0763 45.9025 91.8954 38.6513 90.4017C34.5522 89.5571 30.2949 89.1183 26.083 89.1183Z" fill="#4582EC"/>
</svg>
