<svg width="100" height="100" viewBox="0 0 100 100" fill="none" xmlns="http://www.w3.org/2000/svg">
<path fill-rule="evenodd" clip-rule="evenodd" d="M39.7097 10.2903C38.4893 9.06992 36.5106 9.06992 35.2903 10.2903C34.0699 11.5107 34.0699 13.4893 35.2903 14.7097L38.2889 17.7083H37.5C19.6658 17.7083 5.20831 32.1658 5.20831 50C5.20831 67.8342 19.6671 82.2917 37.5011 82.2917H39.5833C41.3092 82.2917 42.7083 80.8925 42.7083 79.1667C42.7083 77.4408 41.3092 76.0417 39.5833 76.0417H37.5011C23.1186 76.0417 11.4583 64.3821 11.4583 50C11.4583 35.6176 23.1176 23.9583 37.5 23.9583H45.8333C47.0971 23.9583 48.2366 23.197 48.7204 22.0292C49.2041 20.8615 48.9366 19.5174 48.0429 18.6236L39.7097 10.2903Z" fill="#4582EC"/>
<path opacity="0.5" d="M60.4167 17.7083C58.6908 17.7083 57.2917 19.1075 57.2917 20.8333C57.2917 22.5592 58.6908 23.9583 60.4167 23.9583H62.5C76.8825 23.9583 88.5417 35.6176 88.5417 50C88.5417 64.3825 76.8825 76.0417 62.5 76.0417H54.1667C52.9029 76.0417 51.7634 76.8029 51.2796 77.9708C50.7959 79.1383 51.0633 80.4825 51.9571 81.3763L60.2904 89.7096C61.5108 90.93 63.4896 90.93 64.71 89.7096C65.93 88.4892 65.93 86.5108 64.71 85.2904L61.7113 82.2917H62.5C80.3342 82.2917 94.7917 67.8342 94.7917 50C94.7917 32.1658 80.3342 17.7083 62.5 17.7083H60.4167Z" fill="#4582EC"/>
</svg>
