<svg width="100" height="100" viewBox="0 0 100 100" fill="none" xmlns="http://www.w3.org/2000/svg">
<path opacity="0.5" d="M19.702 67.2371C13.2623 60.7975 10.0424 57.5775 8.84432 53.4C7.6462 49.2225 8.67011 44.7854 10.7179 35.9115L11.8989 30.794C13.6217 23.3284 14.4832 19.5955 17.0393 17.0393C19.5955 14.4832 23.3283 13.6218 30.794 11.8989L35.9114 10.718C44.7854 8.67013 49.2225 7.64621 53.4 8.84434C57.5775 10.0424 60.7975 13.2623 67.2371 19.702L74.8604 27.3255C86.0646 38.5296 91.6667 44.1317 91.6667 51.0929C91.6667 58.0542 86.0646 63.6563 74.8604 74.8604C63.6562 86.0646 58.0542 91.6667 51.0929 91.6667C44.1317 91.6667 38.5296 86.0646 27.3255 74.8604L19.702 67.2371Z" fill="#4582EC"/>
<path d="M42.1813 30.2973C45.4625 33.5789 45.4625 38.8995 42.1813 42.1813C38.8995 45.4625 33.5789 45.4625 30.2973 42.1813C27.0157 38.8995 27.0157 33.5789 30.2973 30.2973C33.5789 27.0157 38.8995 27.0157 42.1813 30.2973Z" fill="#4582EC"/>
<path d="M79.38 50.2142L50.3004 79.2946C49.0804 80.515 47.1017 80.515 45.8813 79.2946C44.6608 78.0742 44.6608 76.0958 45.8813 74.8754L74.9604 45.795C76.1808 44.5746 78.1592 44.5746 79.3796 45.795C80.6 47.0154 80.6 48.9942 79.38 50.2142Z" fill="#4582EC"/>
</svg>
